# Blender v2.71 (sub 0) OBJ File: 'VR_Playground.blend'
# www.blender.org
mtllib VR_Playground.mtl
o PosSide1
v -0.342525 -0.357017 0.359379
v -0.340220 -0.357017 0.343641
v -0.308111 -0.357017 0.348343
v -0.310416 -0.357017 0.364080
v -0.342525 -0.324566 0.359379
v -0.340220 -0.324566 0.343641
v -0.308111 -0.324566 0.348343
v -0.310416 -0.324566 0.364080
vt 1.000000 0.000000
vt 1.000000 1.000000
vt 0.000000 1.000000
vt 0.000000 0.000000
vn -0.989400 0.000000 -0.144900
vn 0.144900 0.000000 -0.989400
vn 0.989400 0.000000 0.144900
vn -0.144900 0.000000 0.989400
vn 0.000000 -1.000000 -0.000000
vn 0.000000 1.000000 -0.000000
vn 0.144900 0.000000 -0.989500
vn -0.144900 0.000000 0.989500
usemtl Black
s off
f 6/1/1 2/2/1 1/3/1
f 7/1/2 3/2/2 2/3/2
f 8/1/3 4/2/3 3/3/3
f 5/1/4 1/2/4 4/3/4
f 2/1/5 3/2/5 4/3/5
f 8/4/6 7/1/6 6/2/6
f 5/4/1 6/1/1 1/3/1
f 6/4/7 7/1/7 2/3/7
f 7/4/3 8/1/3 3/3/3
f 8/4/8 5/1/8 4/3/8
f 1/4/5 2/1/5 4/3/5
f 5/3/6 8/4/6 6/2/6
o PosSide2
v 0.220405 -0.357017 0.441803
v 0.222709 -0.357017 0.426066
v 0.254818 -0.357017 0.430767
v 0.252514 -0.357017 0.446505
v 0.220405 -0.324566 0.441803
v 0.222709 -0.324566 0.426066
v 0.254818 -0.324566 0.430767
v 0.252514 -0.324566 0.446505
vt 1.000000 0.000000
vt 1.000000 1.000000
vt 0.000000 1.000000
vt 0.000000 0.000000
vn -0.989400 0.000000 -0.144900
vn 0.144900 0.000000 -0.989500
vn 0.989500 0.000000 0.144900
vn -0.144900 0.000000 0.989400
vn 0.000000 -1.000000 0.000000
vn 0.000000 1.000000 -0.000000
vn 0.144900 0.000000 -0.989400
vn 0.989400 0.000000 0.144900
usemtl Black
s off
f 14/5/9 10/6/9 9/7/9
f 15/5/10 11/6/10 10/7/10
f 16/5/11 12/6/11 11/7/11
f 13/5/12 9/6/12 12/7/12
f 10/5/13 11/6/13 12/7/13
f 16/8/14 15/5/14 14/6/14
f 13/8/9 14/5/9 9/7/9
f 14/8/15 15/5/15 10/7/15
f 15/8/16 16/5/16 11/7/16
f 16/8/12 13/5/12 12/7/12
f 9/8/13 10/5/13 12/7/13
f 13/7/14 16/8/14 14/6/14
o PosSide3
v 0.272375 -0.364796 -0.085445
v 0.274679 -0.364796 -0.101183
v 0.306788 -0.364796 -0.096482
v 0.304484 -0.364796 -0.080744
v 0.272375 -0.332344 -0.085445
v 0.274679 -0.332344 -0.101183
v 0.306788 -0.332344 -0.096482
v 0.304484 -0.332344 -0.080744
vt 1.000000 0.000000
vt 1.000000 1.000000
vt 0.000000 1.000000
vt 0.000000 0.000000
vn -0.989500 0.000000 -0.144900
vn 0.144900 0.000000 -0.989400
vn 0.989500 0.000000 0.144900
vn -0.144900 0.000000 0.989400
vn 0.000000 -1.000000 -0.000000
vn 0.000000 1.000000 0.000000
usemtl Black
s off
f 22/9/17 18/10/17 17/11/17
f 23/9/18 19/10/18 18/11/18
f 24/9/19 20/10/19 19/11/19
f 21/9/20 17/10/20 20/11/20
f 18/9/21 19/10/21 20/11/21
f 24/12/22 23/9/22 22/10/22
f 21/12/17 22/9/17 17/11/17
f 22/12/18 23/9/18 18/11/18
f 23/12/19 24/9/19 19/11/19
f 24/12/20 21/9/20 20/11/20
f 17/12/21 18/9/21 20/11/21
f 21/11/22 24/12/22 22/10/22
o PosSide4
v -0.290555 -0.364796 -0.167870
v -0.288251 -0.364796 -0.183607
v -0.256142 -0.364796 -0.178906
v -0.258446 -0.364796 -0.163169
v -0.290555 -0.332344 -0.167870
v -0.288251 -0.332344 -0.183607
v -0.256142 -0.332344 -0.178906
v -0.258446 -0.332344 -0.163169
vt 1.000000 0.000000
vt 1.000000 1.000000
vt 0.000000 1.000000
vt 0.000000 0.000000
vn -0.989500 0.000000 -0.144900
vn 0.144900 0.000000 -0.989400
vn 0.989500 0.000000 0.144900
vn -0.144900 0.000000 0.989400
vn 0.000000 -1.000000 -0.000000
vn 0.000000 1.000000 0.000000
vn -0.989400 0.000000 -0.144900
vn 0.989400 0.000000 0.144900
usemtl Black
s off
f 30/13/23 26/14/23 25/15/23
f 31/13/24 27/14/24 26/15/24
f 32/13/25 28/14/25 27/15/25
f 29/13/26 25/14/26 28/15/26
f 26/13/27 27/14/27 28/15/27
f 32/16/28 31/13/28 30/14/28
f 29/16/29 30/13/29 25/15/29
f 30/16/24 31/13/24 26/15/24
f 31/16/30 32/13/30 27/15/30
f 32/16/26 29/13/26 28/15/26
f 25/16/27 26/13/27 28/15/27
f 29/15/28 32/16/28 30/14/28
o PosCorner3
v -0.266630 -0.364796 -0.430085
v -0.261929 -0.364796 -0.462194
v -0.229820 -0.364796 -0.457493
v -0.234522 -0.364796 -0.425384
v -0.266630 -0.332344 -0.430085
v -0.261929 -0.332344 -0.462194
v -0.229820 -0.332344 -0.457493
v -0.234522 -0.332344 -0.425384
vt 1.000000 0.000000
vt 1.000000 1.000000
vt 0.000000 1.000000
vt 0.000000 0.000000
vn -0.989400 0.000000 -0.144900
vn 0.144900 0.000000 -0.989400
vn 0.989400 0.000000 0.144900
vn -0.144900 0.000000 0.989400
vn 0.000000 -1.000000 -0.000000
vn 0.000000 1.000000 0.000000
usemtl Black
s off
f 38/17/31 34/18/31 33/19/31
f 39/17/32 35/18/32 34/19/32
f 40/17/33 36/18/33 35/19/33
f 37/17/34 33/18/34 36/19/34
f 34/17/35 35/18/35 36/19/35
f 40/20/36 39/17/36 38/18/36
f 37/20/31 38/17/31 33/19/31
f 38/20/32 39/17/32 34/19/32
f 39/20/33 40/17/33 35/19/33
f 40/20/34 37/17/34 36/19/34
f 33/20/35 34/17/35 36/19/35
f 37/19/36 40/20/36 38/18/36
o PosCorner4
v 0.296299 -0.364796 -0.347661
v 0.301001 -0.364796 -0.379770
v 0.333109 -0.364796 -0.375068
v 0.328408 -0.364796 -0.342959
v 0.296299 -0.332344 -0.347661
v 0.301001 -0.332344 -0.379770
v 0.333109 -0.332344 -0.375068
v 0.328408 -0.332344 -0.342959
vt 1.000000 0.000000
vt 1.000000 1.000000
vt 0.000000 1.000000
vt 0.000000 0.000000
vn -0.989400 0.000000 -0.144900
vn 0.144900 0.000000 -0.989400
vn 0.989400 0.000000 0.144900
vn -0.144900 0.000000 0.989400
vn 0.000000 -1.000000 -0.000000
vn 0.000000 1.000000 0.000000
vn 0.144900 0.000000 -0.989500
usemtl Black
s off
f 46/21/37 42/22/37 41/23/37
f 47/21/38 43/22/38 42/23/38
f 48/21/39 44/22/39 43/23/39
f 45/21/40 41/22/40 44/23/40
f 42/21/41 43/22/41 44/23/41
f 47/21/42 46/22/42 45/23/42
f 45/24/37 46/21/37 41/23/37
f 46/24/43 47/21/43 42/23/43
f 47/24/39 48/21/39 43/23/39
f 48/24/40 45/21/40 44/23/40
f 41/24/41 42/21/41 44/23/41
f 48/24/42 47/21/42 45/23/42
o PosCorner1
v 0.191407 -0.357017 0.720390
v 0.196108 -0.357017 0.688281
v 0.228217 -0.357017 0.692982
v 0.223516 -0.357017 0.725091
v 0.191407 -0.324566 0.720390
v 0.196108 -0.324566 0.688281
v 0.228217 -0.324566 0.692982
v 0.223516 -0.324566 0.725091
vt 1.000000 0.000000
vt 1.000000 1.000000
vt 0.000000 1.000000
vt 0.000000 0.000000
vn -0.989400 0.000000 -0.144900
vn 0.144900 0.000000 -0.989500
vn 0.989400 0.000000 0.144900
vn -0.144900 0.000000 0.989500
vn 0.000000 -1.000000 0.000000
vn 0.000000 1.000000 -0.000000
vn 0.144900 0.000000 -0.989400
vn -0.144900 0.000000 0.989400
usemtl Black
s off
f 54/25/44 50/26/44 49/27/44
f 55/25/45 51/26/45 50/27/45
f 56/25/46 52/26/46 51/27/46
f 53/25/47 49/26/47 52/27/47
f 49/28/48 50/25/48 51/26/48
f 55/25/49 54/26/49 53/27/49
f 53/28/44 54/25/44 49/27/44
f 54/28/50 55/25/50 50/27/50
f 55/28/46 56/25/46 51/27/46
f 56/28/51 53/25/51 52/27/51
f 52/27/48 49/28/48 51/26/48
f 56/28/49 55/25/49 53/27/49
o PosCorner2
v -0.371523 -0.357017 0.637965
v -0.366821 -0.357017 0.605857
v -0.334713 -0.357017 0.610558
v -0.339414 -0.357017 0.642667
v -0.371523 -0.324566 0.637965
v -0.366821 -0.324566 0.605857
v -0.334713 -0.324566 0.610558
v -0.339414 -0.324566 0.642667
vt 1.000000 0.000000
vt 1.000000 1.000000
vt 0.000000 1.000000
vt 0.000000 0.000000
vn -0.989400 0.000000 -0.144900
vn 0.144900 0.000000 -0.989400
vn 0.989400 0.000000 0.144900
vn -0.144900 0.000000 0.989400
vn 0.000000 -1.000000 -0.000000
vn 0.000000 1.000000 -0.000000
usemtl Black
s off
f 62/29/52 58/30/52 57/31/52
f 63/29/53 59/30/53 58/31/53
f 64/29/54 60/30/54 59/31/54
f 61/29/55 57/30/55 60/31/55
f 57/32/56 58/29/56 59/30/56
f 63/29/57 62/30/57 61/31/57
f 61/32/52 62/29/52 57/31/52
f 62/32/53 63/29/53 58/31/53
f 63/32/54 64/29/54 59/31/54
f 64/32/55 61/29/55 60/31/55
f 60/31/56 57/32/56 59/30/56
f 64/32/57 63/29/57 61/31/57
o PosCenter
v -0.034972 -0.367492 0.158474
v -0.032474 -0.367492 0.132264
v -0.006265 -0.367492 0.134761
v -0.008762 -0.367492 0.160971
v -0.034972 -0.341163 0.158474
v -0.032474 -0.341163 0.132264
v -0.006265 -0.341163 0.134761
v -0.008762 -0.341163 0.160971
vt 0.333333 0.333333
vt 0.666667 0.333333
vt 0.666667 0.666667
vt 0.000000 0.333333
vt 0.333333 0.666667
vt 0.000000 0.000000
vt 0.333333 0.000000
vt 0.666667 0.000000
vt 1.000000 0.333333
vt 0.000000 0.666667
vt 0.333333 1.000000
vt 1.000000 0.000000
vt 0.000000 1.000000
vn -0.995500 0.000000 -0.094900
vn 0.094900 0.000000 -0.995500
vn 0.995500 0.000000 0.094900
vn -0.094900 0.000000 0.995500
vn 0.000000 -1.000000 0.000000
vn 0.000000 1.000000 0.000000
usemtl Black
s off
f 70/33/58 66/34/58 65/35/58
f 71/36/59 67/33/59 66/37/59
f 72/38/60 68/39/60 67/33/60
f 69/40/61 65/34/61 68/33/61
f 66/41/62 67/34/62 68/40/62
f 72/42/63 71/37/63 70/43/63
f 69/37/58 70/33/58 65/35/58
f 70/42/59 71/36/59 66/37/59
f 71/36/60 72/38/60 67/33/60
f 72/39/61 69/40/61 68/33/61
f 65/44/62 66/41/62 68/40/62
f 69/45/63 72/42/63 70/43/63
o Arena
v -0.277773 -0.353049 -0.472509
v -0.423672 0.003147 -0.655742
v -0.588415 0.003147 0.822594
v -0.277773 -0.353049 -0.472509
v -0.588415 0.003147 0.822594
v -0.403943 -0.356187 0.672831
v -0.588415 0.003147 0.822594
v 0.392703 0.003147 0.934113
v 0.241051 -0.357474 0.745533
v -0.588415 0.003147 0.822594
v 0.241051 -0.357474 0.745533
v -0.403943 -0.356187 0.672831
v 0.392703 0.003147 0.934113
v 0.553406 0.003147 -0.541765
v 0.366920 -0.354344 -0.396702
v 0.392703 0.003147 0.934113
v 0.366920 -0.354344 -0.396702
v 0.241051 -0.357474 0.745533
v 0.366920 -0.354344 -0.396702
v 0.553406 0.003147 -0.541765
v -0.423672 0.003147 -0.655742
v 0.366920 -0.354344 -0.396702
v -0.423672 0.003147 -0.655742
v -0.277773 -0.353049 -0.472509
v 0.241051 -0.357474 0.745533
v 0.366920 -0.354344 -0.396702
v -0.277773 -0.353049 -0.472509
v 0.241051 -0.357474 0.745533
v -0.277773 -0.353049 -0.472509
v -0.403943 -0.356187 0.672831
vt 0.631443 0.084679
vt 0.712240 0.000000
vt 0.712240 0.754632
vt 0.854675 0.000000
vt 0.854675 0.675225
vt 0.784019 0.579916
vt 0.937061 0.000000
vt 0.937061 0.500947
vt 0.854675 0.414062
vt 0.999661 0.500947
vt 0.999661 0.923819
vt 0.935794 0.601326
vt 0.631443 0.000000
vt 0.631443 0.753168
vt 0.549194 0.669271
vt 0.784019 0.000000
vt 0.784019 0.674739
vt 0.712240 0.096569
vt 0.854675 0.586030
vt 0.935794 0.500947
vt 0.935794 1.000000
vt 1.000000 0.000000
vt 1.000000 0.422516
vt 0.937061 0.322721
vt 0.549194 0.671666
vt 0.274961 0.163555
vt 0.549194 0.000000
vt 0.274961 0.000000
vt 0.274961 0.671666
vt 0.000000 0.162166
vn 0.901500 0.420900 0.100500
vn 0.102100 0.426900 -0.898500
vn -0.898100 0.428800 -0.097800
vn -0.105100 0.420500 0.901200
vn 0.001700 1.000000 0.002900
usemtl Material
s off
f 73/46/64 74/47/64 75/48/64
f 76/49/64 77/50/64 78/51/64
f 79/52/65 80/53/65 81/54/65
f 82/55/65 83/56/65 84/57/65
f 85/58/66 86/59/66 87/60/66
f 88/61/66 89/62/66 90/63/66
f 91/64/67 92/65/67 93/66/67
f 94/67/67 95/68/67 96/69/67
f 97/70/68 98/71/68 99/72/68
f 100/73/68 101/74/68 102/75/68
